<?xml version="1.0" encoding="UTF-8" standalone="no"?><!-- Generator: Gravit.io --><svg xmlns="http://www.w3.org/2000/svg" xmlns:xlink="http://www.w3.org/1999/xlink" style="isolation:isolate" viewBox="0 0 128 128" width="128pt" height="128pt"><defs><clipPath id="_clipPath_nei1mRdvLkfJeLmsX5YovkqJFzKISIZg"><rect width="128" height="128"/></clipPath></defs><g clip-path="url(#_clipPath_nei1mRdvLkfJeLmsX5YovkqJFzKISIZg)"><clipPath id="_clipPath_OiExz5GR9FIm3kSlQt3o34OGJ8o70t2G"><rect x="0" y="0.355" width="128" height="127.289" transform="matrix(1,0,0,1,0,0)" fill="rgb(255,255,255)"/></clipPath><g clip-path="url(#_clipPath_OiExz5GR9FIm3kSlQt3o34OGJ8o70t2G)"><g><path d=" M 74.31 127.358 L 74.667 127.645 C 104.889 122.312 128 96 128 64.356 C 128 29.156 99.2 0.355 64 0.355 C 28.8 0.355 0 29.156 0 64.356 C 0 96 23.111 122.312 53.333 127.645 L 53.69 127.358 C 53.571 127.337 53.452 127.313 53.333 127.289 L 53.333 82.134 L 37.333 82.134 L 37.333 64.356 L 53.333 64.356 L 53.333 50.134 C 53.333 34.134 63.644 25.245 78.222 25.245 C 82.844 25.245 87.822 25.956 92.444 26.667 L 92.444 43.023 L 84.267 43.023 C 76.444 43.023 74.667 46.934 74.667 51.912 L 74.667 64.356 L 91.733 64.356 L 88.889 82.134 L 74.667 82.134 L 74.667 127.289 C 74.548 127.313 74.429 127.337 74.31 127.358 Z " fill="rgb(255,255,255)"/></g></g></g></svg>