<?xml version="1.0" encoding="UTF-8" standalone="no"?><!-- Generator: Gravit.io --><svg xmlns="http://www.w3.org/2000/svg" xmlns:xlink="http://www.w3.org/1999/xlink" style="isolation:isolate" viewBox="0 0 128 128" width="128pt" height="128pt"><defs><clipPath id="_clipPath_M66zL6fCEIrUKYrYdOAlvDKCUMnYAJI8"><rect width="128" height="128"/></clipPath></defs><g clip-path="url(#_clipPath_M66zL6fCEIrUKYrYdOAlvDKCUMnYAJI8)"><path d=" M 64 11.532 C 81.089 11.532 83.113 11.597 89.861 11.905 C 96.101 12.189 99.49 13.232 101.745 14.108 C 104.732 15.269 106.865 16.656 109.104 18.896 C 111.344 21.135 112.731 23.268 113.891 26.255 C 114.768 28.51 115.811 31.899 116.095 38.139 C 116.403 44.887 116.468 46.911 116.468 64 C 116.468 81.089 116.403 83.113 116.095 89.861 C 115.811 96.101 114.768 99.49 113.891 101.746 C 112.731 104.733 111.344 106.865 109.104 109.104 C 106.865 111.344 104.732 112.731 101.745 113.892 C 99.49 114.768 96.101 115.811 89.861 116.096 C 83.114 116.403 81.09 116.468 64 116.468 C 46.91 116.468 44.886 116.403 38.139 116.096 C 31.899 115.811 28.51 114.768 26.255 113.892 C 23.267 112.731 21.135 111.344 18.896 109.104 C 16.656 106.865 15.269 104.733 14.108 101.746 C 13.232 99.49 12.189 96.101 11.904 89.862 C 11.597 83.113 11.532 81.089 11.532 64 C 11.532 46.911 11.597 44.887 11.904 38.139 C 12.189 31.899 13.232 28.51 14.108 26.255 C 15.269 23.268 16.656 21.135 18.896 18.896 C 21.135 16.656 23.267 15.269 26.255 14.108 C 28.51 13.232 31.899 12.189 38.138 11.905 C 44.887 11.597 46.911 11.532 64 11.532 Z  M 64 0 C 46.618 0 44.439 0.074 37.613 0.385 C 30.801 0.696 26.148 1.778 22.077 3.36 C 17.869 4.996 14.3 7.184 10.742 10.742 C 7.184 14.3 4.995 17.869 3.36 22.078 C 1.778 26.149 0.696 30.801 0.385 37.613 C 0.073 44.439 0 46.619 0 64 C 0 81.382 0.073 83.561 0.385 90.387 C 0.696 97.199 1.778 101.852 3.36 105.923 C 4.995 110.131 7.184 113.7 10.742 117.258 C 14.3 120.816 17.869 123.005 22.077 124.64 C 26.148 126.222 30.801 127.304 37.613 127.615 C 44.439 127.927 46.618 128 64 128 C 81.381 128 83.561 127.927 90.387 127.615 C 97.199 127.304 101.851 126.222 105.922 124.64 C 110.131 123.005 113.7 120.816 117.258 117.258 C 120.816 113.7 123.004 110.131 124.64 105.923 C 126.222 101.852 127.304 97.199 127.615 90.387 C 127.926 83.561 128 81.382 128 64 C 128 46.619 127.926 44.439 127.615 37.613 C 127.304 30.801 126.222 26.149 124.64 22.078 C 123.004 17.869 120.816 14.3 117.258 10.742 C 113.7 7.184 110.131 4.996 105.922 3.36 C 101.851 1.778 97.199 0.696 90.387 0.385 C 83.561 0.074 81.381 0 64 0 Z  M 64 31.135 C 45.849 31.135 31.135 45.849 31.135 64 C 31.135 82.151 45.849 96.865 64 96.865 C 82.151 96.865 96.865 82.151 96.865 64 C 96.865 45.849 82.151 31.135 64 31.135 Z  M 64 85.334 C 52.218 85.334 42.666 75.782 42.666 64 C 42.666 52.218 52.218 42.667 64 42.667 C 75.782 42.667 85.333 52.218 85.333 64 C 85.333 75.782 75.782 85.334 64 85.334 Z  M 105.843 29.837 C 105.843 34.078 102.405 37.517 98.163 37.517 C 93.922 37.517 90.483 34.078 90.483 29.837 C 90.483 25.595 93.922 22.157 98.163 22.157 C 102.405 22.157 105.843 25.595 105.843 29.837 Z " fill="rgb(255,255,255)"/></g></svg>