<?xml version="1.0" encoding="UTF-8" standalone="no"?><!-- Generator: Gravit.io --><svg xmlns="http://www.w3.org/2000/svg" xmlns:xlink="http://www.w3.org/1999/xlink" style="isolation:isolate" viewBox="0 0 128 128" width="128pt" height="128pt"><defs><clipPath id="_clipPath_z6FhWGqPS18DVwUttGDwJD0Hy6sd5oHh"><rect width="128" height="128"/></clipPath></defs><g clip-path="url(#_clipPath_z6FhWGqPS18DVwUttGDwJD0Hy6sd5oHh)"><clipPath id="_clipPath_ElbCgP9x1huESi7J6UMPqTIIJfuoDxW4"><rect x="0" y="3.051" width="128" height="121.898" transform="matrix(1,0,0,1,0,0)" fill="rgb(255,255,255)"/></clipPath><g clip-path="url(#_clipPath_ElbCgP9x1huESi7J6UMPqTIIJfuoDxW4)"><g><path d=" M 70.987 101.569 L 91.104 124.949 L 111.157 110.38 L 91.581 77.991 C 82.74 83.444 74.07 94.014 70.991 101.569 L 70.987 101.569 L 70.987 101.569 Z  M 42.07 124.915 C 58.601 91.206 90.169 66.234 128 58.782 L 120.311 35.101 C 74.414 40.283 35.366 68.1 14.47 107.16 L 42.07 124.911 L 42.07 124.915 L 42.07 124.915 Z  M 48.095 44.518 L 7.655 34.998 L 0 58.61 L 28.077 70.462 C 33.835 64.639 40.273 59.56 47.347 55.222 C 56.933 49.33 65.301 45.43 79.527 40.554 L 76.375 3.051 L 51.579 3.051 L 48.092 44.522 L 48.095 44.518 Z " fill-rule="evenodd" fill="rgb(255,255,255)"/></g></g></g></svg>